<svg width="401" height="376" viewBox="0 0 401 376" fill="none" xmlns="http://www.w3.org/2000/svg">
<rect x="0.666687" y="-3.05176e-05" width="400" height="375.758" rx="80" fill="#7D0A0A"/>
<path fill-rule="evenodd" clip-rule="evenodd" d="M151.781 111.77C145.006 105.419 145.006 95.1279 151.781 88.7764L188.169 54.5946C194.933 48.243 205.903 48.243 212.666 54.5946L249.066 88.7764C255.83 95.1279 255.83 105.419 249.066 111.77L212.666 145.952C205.903 152.304 194.933 152.304 188.181 145.952L151.781 111.77ZM193.951 193.807C190.557 190.631 190.557 185.479 193.951 182.292L194.4 181.879C197.781 178.704 203.26 178.704 206.642 181.879L207.103 182.304C210.484 185.479 210.484 190.631 207.103 193.807L206.642 194.231C203.26 197.407 197.781 197.407 194.4 194.231L193.951 193.807ZM248.46 176.74C241.697 183.092 241.697 193.395 248.46 199.746L284.86 233.928C291.624 240.267 302.581 240.267 309.345 233.928L345.745 199.746C352.509 193.395 352.509 183.092 345.745 176.74L309.357 142.558C302.581 136.219 291.624 136.219 284.86 142.558L248.46 176.74ZM55.5754 199.601C48.7996 193.249 48.7996 182.946 55.5754 176.595L91.9511 142.425C98.7269 136.073 109.684 136.073 116.448 142.425L152.848 176.607C159.612 182.946 159.612 193.249 152.848 199.601L116.448 233.782C109.684 240.122 98.7269 240.122 91.9633 233.782L55.5754 199.601ZM151.781 263.976C145.018 270.328 145.018 280.631 151.781 286.982L188.181 321.164C194.945 327.504 205.915 327.504 212.666 321.164L249.078 286.982C255.842 280.631 255.842 270.328 249.078 263.976L212.678 229.795C205.915 223.455 194.945 223.455 188.181 229.795L151.781 263.976Z" fill="white"/>
</svg>
